<?xml version="1.0" encoding="utf-8"?>
<!-- Generator: Adobe Illustrator 23.0.5, SVG Export Plug-In . SVG Version: 6.00 Build 0)  -->
<svg version="1.1" id="Layer_1" xmlns="http://www.w3.org/2000/svg" xmlns:xlink="http://www.w3.org/1999/xlink" x="0px" y="0px"
	 viewBox="0 0 968.79 1073.58" style="enable-background:new 0 0 968.79 1073.58;" xml:space="preserve">
<style type="text/css">
	.st0{fill:#1E3757;}
	.st1{opacity:0.15;}
	.st2{fill:#FFFFFF;}
</style>
<g>
	<g>
		<g>
			<path class="st0" d="M689.2,56.73H296.16c-140.39,0-254.2,113.81-254.2,254.2v452.85c0,140.39,113.81,254.2,254.2,254.2H689.2
				c140.39,0,254.2-113.81,254.2-254.2V310.93C943.4,170.54,829.59,56.73,689.2,56.73z"/>
		</g>
		<g class="st1">
			<g>
				<path class="st2" d="M632.85,270.5c-83.75,0-129.97,37.49-129.97,88.5c-1.18,56.81,57.68,82.32,128,98.16l72.69,17
					c140.64,30.92,242.17,100.87,242.56,232.65c-0.39,144.92-116.54,237.29-314.07,237.29c-196.34,0-321.57-88.5-325.92-259.7
					h165.53c5.53,79.22,69.53,119.42,158.41,119.42c86.91,0,143.01-39.42,143.4-97.39c-0.39-53.33-49.38-78.07-137.48-98.93
					l-88.1-21.64c-136.69-32.08-220.84-98.93-220.44-215.64C326.69,226.45,456.66,130.6,634.04,130.6
					c180.15,0,298.66,97.39,301.03,238.45H771.12C764.8,306.83,714.63,270.5,632.85,270.5z"/>
			</g>
		</g>
	</g>
	<g>
		<path class="st2" d="M460.86,663.52h-62.97l-150.01-212.3h-2.53v212.3h-72.9V326.21h63.98l148.83,212.14h3.03V326.21h72.56V663.52
			z"/>
		<path class="st2" d="M502.3,663.52l119.03-337.31h93.95l118.86,337.31h-78.12l-25.59-76.92H606.01l-25.59,76.92H502.3z
			 M712.08,530.94l-42.43-127.64h-2.7l-42.43,127.64H712.08z"/>
	</g>
</g>
</svg>
